<svg width="38" height="32" viewBox="0 0 38 32" fill="none" xmlns="http://www.w3.org/2000/svg">
<path fill-rule="evenodd" clip-rule="evenodd" d="M3.30833 0.494797C1.48125 0.494797 0 1.9948 0 3.84271V23.9323C0 25.7813 1.48125 27.2802 3.30833 27.2802H14.3385V29.5125H9.92604V31.7448H27.574V29.5125H23.1615V27.2802H34.1917C36.0187 27.2802 37.5 25.7813 37.5 23.9323V3.84271C37.5 1.9948 36.0187 0.494797 34.1917 0.494797H3.30833ZM16.5437 29.5125V27.2802H20.9562V29.5125H16.5437ZM7.72083 4.95938H9.92708V7.19167H12.1333V9.42396H9.92708V11.6552H7.72083V9.42396H5.51458V7.19167H7.72083V4.95938ZM5.51458 16.1198C5.51458 15.5031 6.00833 15.0042 6.61771 15.0042H11.0292C11.6385 15.0042 12.1323 15.5042 12.1323 16.1198V20.5844C12.1323 21.2 11.6385 21.7 11.0292 21.7H6.61771C6.00833 21.7 5.51354 21.2 5.51354 20.5844V16.1198H5.51458ZM15.4417 6.07501C15.4417 5.45938 15.9344 4.95938 16.5437 4.95938H20.9552C21.5646 4.95938 22.0594 5.45938 22.0594 6.07501V10.5396C22.0594 11.1563 21.5646 11.6552 20.9552 11.6552H16.5437C15.9344 11.6552 15.4406 11.1552 15.4406 10.5396V6.07501H15.4417ZM15.4417 16.1198C15.4417 15.5031 15.9344 15.0042 16.5437 15.0042H20.9552C21.5646 15.0042 22.0594 15.5042 22.0594 16.1198V20.5844C22.0594 21.2 21.5646 21.7 20.9552 21.7H16.5437C15.9344 21.7 15.4406 21.2 15.4406 20.5844V16.1198H15.4417ZM25.3677 6.07501C25.3677 5.45938 25.8615 4.95938 26.4708 4.95938H30.8823C31.4917 4.95938 31.9854 5.45938 31.9854 6.07501V10.5396C31.9854 11.1563 31.4917 11.6552 30.8812 11.6552H26.4708C25.8615 11.6552 25.3667 11.1552 25.3667 10.5396V6.07501H25.3677Z" fill="#1F2226"/>
</svg>
